<svg width="250" height="40" viewBox="0 0 250 40" fill="none" xmlns="http://www.w3.org/2000/svg">
<path d="M80.5212 1.40688C80.5212 2.46182 82.6526 4.63032 84.2512 5.15779C84.7841 5.33362 84.7841 5.56805 84.192 6.27135C83.5407 7.03325 83.6591 7.26768 84.9025 7.56072C86.6195 7.97098 88.218 9.43618 88.218 10.6083C88.218 11.0772 87.0339 12.0149 85.5537 12.7182C83.4815 13.7146 82.771 14.4765 82.2382 16.0589C81.4093 18.6376 80.2252 19.634 77.9753 19.634C75.607 19.634 75.9623 21.6267 78.449 21.8611C79.4555 21.9783 80.8172 22.623 81.4685 23.2091C82.179 23.8538 83.7775 24.4985 85.0209 24.6743C89.2838 25.1431 90.5863 25.612 91.1784 26.7256C91.5336 27.3702 92.8362 28.308 94.0203 28.8941C96.6254 30.1248 96.7438 31.6486 94.4347 33.4069C93.6058 34.0516 91.5928 35.6926 90.0535 37.0992C88.4549 38.4472 86.7971 39.5607 86.3234 39.5607C85.0209 39.5607 83.9552 38.0955 84.1328 36.5131C84.3696 34.7549 83.7183 33.6999 82.3566 33.6999C80.5212 33.6999 79.6331 32.1175 80.3436 30.1248C80.9356 28.6596 80.8764 28.308 79.7515 27.5461C79.041 27.0772 77.5016 26.667 76.3175 26.667C74.4229 26.667 73.7716 26.2567 71.7586 23.8538C70.2192 22.0955 69.2719 20.2201 69.0351 18.6376C68.6207 16.2347 66.726 13.7732 65.8379 14.5937C65.6011 14.8281 65.3051 17.1138 65.1867 19.6926C65.009 24.3226 65.009 24.3226 66.6668 24.9673C67.6141 25.319 68.7983 25.905 69.2719 26.3739C69.7456 26.7842 70.8113 27.253 71.581 27.3702C73.7716 27.6633 74.4821 29.2457 73.1796 30.7109C72.5283 31.4142 71.581 31.9417 70.9889 31.9417C69.7456 31.9417 69.2127 32.645 69.7456 33.4655C69.9824 33.8171 71.4034 35.0479 72.9427 36.2201C78.5674 40.4398 87.626 41.0845 95.0268 37.8611C97.7503 36.6889 97.8095 36.5717 96.8622 35.5168C95.8557 34.4618 95.8557 34.3446 97.0398 33.1724C97.7503 32.4692 98.6384 31.9417 99.0529 31.9417C99.4673 31.9417 100.059 31.3556 100.355 30.5937C100.711 29.8904 101.836 29.0113 103.02 28.6596C105.329 27.8977 105.921 26.667 104.5 25.4948C104.026 25.0845 103.612 24.1468 103.612 23.3849C103.612 21.6267 103.02 21.3336 100.77 21.9197C99.4673 22.33 98.6384 22.2127 97.7503 21.5681C96.1517 20.5131 96.1517 19.0479 97.7503 17.3483C98.5792 16.4691 98.816 15.8245 98.4016 15.3556C97.7503 14.5937 98.4016 12.3666 99.4673 11.7219C99.8225 11.4875 101.184 11.8977 102.487 12.5424C105.27 14.0076 105.98 14.0662 105.98 12.9527C105.98 11.8391 106.868 11.6633 111.486 11.8977L115.453 12.1322V24.6743V37.2164H119.302H123.15V24.6157V12.0735L128.064 11.8977L132.919 11.7219V8.49845V5.27501H119.302H105.684L105.506 8.61567C105.329 11.7805 105.21 12.0149 103.908 12.0149C103.079 12.0149 101.895 11.4875 101.244 10.8428C100.415 10.0223 99.5857 9.78783 98.6384 10.0223C97.5727 10.2567 97.0398 10.0809 96.6846 9.26036C95.9741 7.91237 96.0333 7.50212 97.0398 5.09918C97.6911 3.57538 97.6911 3.0479 97.099 2.34461C96.0333 1.05523 95.0268 1.28966 94.9084 2.69625C94.7308 4.74754 93.7835 5.33362 91.7704 4.57171C90.2311 3.98563 89.8758 4.04424 89.343 5.04058C88.9285 5.80248 88.218 6.15413 87.0339 6.03691C86.0866 5.97831 85.4353 5.80248 85.5537 5.68527C85.6722 5.56805 85.0801 4.5131 84.3104 3.39955C83.5407 2.22739 82.8894 1.05523 82.8894 0.820796C82.8894 0.527756 82.3566 0.293324 81.7053 0.293324C80.9356 0.293324 80.5212 0.70358 80.5212 1.40688ZM85.2577 20.5131C86.1458 21.5681 85.613 23.1505 84.4288 23.1505C83.9552 23.1505 83.1263 22.7402 82.5934 22.2127C81.8829 21.5094 81.8237 21.0992 82.3566 20.4545C83.2447 19.3996 84.3104 19.3996 85.2577 20.5131ZM102.664 24.0882C103.434 26.1395 101.066 27.9563 99.5857 26.4325C98.816 25.6706 98.816 25.3776 99.6449 24.0882C100.711 22.5644 102.072 22.5644 102.664 24.0882Z" fill="black"/>
<path d="M40.5568 5.50954C31.0837 7.97108 25.9327 16.8795 28.597 26.1396C31.3798 35.4583 42.3922 40.0883 51.806 35.8099C53.7599 34.9308 55.7729 33.8172 56.365 33.2898C57.3715 32.4106 57.3715 32.2934 56.2465 31.5315C55.5953 31.0627 55.0624 30.2421 55.0624 29.6561C55.0624 27.3703 53.523 27.0773 50.6811 28.7183C47.4248 30.5938 43.5171 30.7696 40.6752 29.1872C38.4846 27.9564 36.1163 23.7366 36.1163 21.0993C36.1755 18.3447 38.1885 14.5352 40.3792 13.1872C43.2803 11.3703 48.2536 11.7806 51.2732 14.0663L53.4638 15.7073L55.7137 13.1286L57.9635 10.5498L56.7202 9.26045C53.9375 6.27144 45.2933 4.27877 40.5568 5.50954Z" fill="black"/>
<path d="M144.346 9.08493C143.399 11.1948 140.32 18.1692 137.537 24.6161C134.755 31.0629 132.386 36.5135 132.209 36.7479C132.09 37.041 133.867 37.2168 136.176 37.2168H140.379L141.623 34.2864L142.866 31.2974L149.971 31.4732L157.016 31.649L158.082 34.2864L159.148 36.9238L163.351 37.0996C165.66 37.2168 167.555 37.041 167.555 36.7479C167.555 36.4549 164.654 29.4219 161.102 21.041L154.648 5.86148L150.326 5.56844L146.063 5.2754L144.346 9.08493ZM150.148 24.9091C147.839 25.0849 145.885 25.0263 145.767 24.7919C145.589 24.3816 148.846 15.4146 149.675 14.1252C149.852 13.8322 150.977 16.0593 152.161 19.1069L154.411 24.6161L150.148 24.9091Z" fill="black"/>
<path d="M173.653 5.45123L169.923 5.62705V21.3926V37.2168H180.876H191.889L191.711 33.8175L191.533 30.4769L184.902 30.301L178.212 30.1252V17.8761C178.212 11.1362 178.034 5.56845 177.797 5.45123C177.501 5.33401 175.666 5.33401 173.653 5.45123Z" fill="black"/>
<path d="M194.494 5.62705C194.376 5.80288 194.317 12.8945 194.376 21.4512L194.494 36.9238L207.401 37.0996L220.249 37.2168V33.9934V30.7699H211.368H202.487V27.5465V24.323H210.184H217.881V21.0996V17.8761H210.125H202.428L202.605 14.7699L202.783 11.7223L211.25 11.5465L219.657 11.3706V8.49885V5.62705L207.164 5.45123C200.296 5.33401 194.553 5.45123 194.494 5.62705Z" fill="black"/>
<path d="M231.024 5.74427C225.754 7.73694 222.972 12.2498 224.333 16.704C225.34 19.986 227.649 21.7443 233.807 23.7369C240.201 25.7882 240.971 26.2571 240.971 28.1912C240.971 29.9494 239.372 30.7699 236.116 30.7699C233.629 30.7699 228.004 28.6014 226.169 26.9604C225.34 26.1985 225.044 26.4915 223.623 29.3047L222.024 32.5282L223.505 33.4659C227.235 35.8688 231.794 37.2168 236.412 37.2168C243.516 37.2168 248.016 34.7553 249.319 30.0666C250.799 24.6161 247.661 20.7479 239.668 18.1692C234.339 16.4109 232.682 15.356 232.682 13.715C232.682 11.2534 236.53 10.8432 241.563 12.66C243.339 13.3047 245.233 13.9494 245.707 14.1252C246.358 14.3597 247.01 13.5977 247.957 11.7223C248.667 10.2571 249.259 8.8505 249.259 8.55746C249.259 8.26442 247.839 7.4439 246.181 6.74061C242.391 5.15819 234.043 4.57211 231.024 5.74427Z" fill="black"/>
<path d="M0 21.3926V37.2168H13.0847H26.1101L25.9325 34.1106L25.7549 31.063L17.0515 30.8871L8.28893 30.7113V27.5465V24.323H15.9858H23.6827V21.0996V17.8761H15.9858H8.28893V14.6527V11.4293H16.8739H25.4589V8.49885V5.56845H12.7294H0V21.3926Z" fill="black"/>
<path d="M78.8041 6.97499C77.5016 8.38158 77.2055 9.964 78.1528 10.5501C78.5081 10.7259 78.7449 10.6087 78.7449 10.257C78.7449 9.90539 79.0409 9.78818 79.4554 10.0226C79.929 10.3156 79.9882 10.1398 79.7514 9.49514C79.3962 8.55741 80.1067 7.73689 81.5868 7.56107C83.0078 7.32664 82.9486 6.97499 81.4684 6.27169C80.2843 5.74422 79.8698 5.86144 78.8041 6.97499Z" fill="black"/>
</svg>
