<!DOCTYPE svg PUBLIC "-//W3C//DTD SVG 1.1//EN" "http://www.w3.org/Graphics/SVG/1.1/DTD/svg11.dtd">
<!-- Uploaded to: SVG Repo, www.svgrepo.com, Transformed by: SVG Repo Mixer Tools -->
<svg fill="#3e865d" width="800px" height="800px" viewBox="0 0 256 256" id="Flat" xmlns="http://www.w3.org/2000/svg" stroke="#3e865d">
<g id="SVGRepo_bgCarrier" stroke-width="0"/>
<g id="SVGRepo_tracerCarrier" stroke-linecap="round" stroke-linejoin="round"/>
<g id="SVGRepo_iconCarrier"> <path d="M128,28A100,100,0,1,0,228,128,100.1127,100.1127,0,0,0,128,28Zm0,192a92,92,0,1,1,92-92A92.10478,92.10478,0,0,1,128,220Zm8-136v92a4,4,0,0,1-8,0V91.47266l-17.78223,11.84961a4.00018,4.00018,0,0,1-4.43554-6.65821l24-15.99316A4.00031,4.00031,0,0,1,136,84Z"/> </g>
</svg>