<!DOCTYPE svg PUBLIC "-//W3C//DTD SVG 1.1//EN" "http://www.w3.org/Graphics/SVG/1.1/DTD/svg11.dtd">
<!-- Uploaded to: SVG Repo, www.svgrepo.com, Transformed by: SVG Repo Mixer Tools -->
<svg fill="#3e865d" width="800px" height="800px" viewBox="0 0 256 256" id="Flat" xmlns="http://www.w3.org/2000/svg">
<g id="SVGRepo_bgCarrier" stroke-width="0"/>
<g id="SVGRepo_tracerCarrier" stroke-linecap="round" stroke-linejoin="round"/>
<g id="SVGRepo_iconCarrier"> <path d="M128,28A100,100,0,1,0,228,128,100.1127,100.1127,0,0,0,128,28Zm0,192a92,92,0,1,1,92-92A92.10478,92.10478,0,0,1,128,220Zm18.63086-90.62695A31.99969,31.99969,0,1,1,101.376,174.627a3.99957,3.99957,0,0,1,5.65625-5.65625A23.99985,23.99985,0,1,0,124.00293,128a3.99973,3.99973,0,0,1-3.27734-6.293l23.59082-33.71484H103.99707a4,4,0,0,1,0-8h48a3.99973,3.99973,0,0,1,3.27734,6.293L131.12988,120.792A31.786,31.786,0,0,1,146.63086,129.37305Z"/> </g>
</svg>